<svg width="25" height="25" viewBox="0 0 25 25" fill="none" xmlns="http://www.w3.org/2000/svg">
<path d="M12.5 0.0993652C5.65478 0.0993652 0.0992289 5.65492 0.0992289 12.5002C0.0992289 19.3454 5.65478 24.9009 12.5 24.9009C19.3453 24.9009 24.9008 19.3454 24.9008 12.5002C24.9008 5.65492 19.3453 0.0993652 12.5 0.0993652ZM12.5 3.8196C14.5586 3.8196 16.2203 5.48131 16.2203 7.53984C16.2203 9.59837 14.5586 11.2601 12.5 11.2601C10.4415 11.2601 8.77978 9.59837 8.77978 7.53984C8.77978 5.48131 10.4415 3.8196 12.5 3.8196ZM12.5 21.4287C11.0266 21.4287 9.57614 21.0641 8.2779 20.3674C6.97965 19.6707 5.874 18.6635 5.05955 17.4357C5.09675 14.9679 10.0199 13.6162 12.5 13.6162C14.9678 13.6162 19.9033 14.9679 19.9405 17.4357C19.126 18.6635 18.0204 19.6707 16.7221 20.3674C15.4239 21.0641 13.9734 21.4287 12.5 21.4287Z" fill="#B4B4B4"/>
</svg>
